<svg width="1086" height="483" viewBox="0 0 1086 483" fill="none" xmlns="http://www.w3.org/2000/svg" preserveAspectRatio="none">
<rect y="113" width="171" height="370" fill="#0A0A0A"/>
<rect x="728" y="26" width="202" height="124" fill="#D9D9D9"/>
<rect x="884" y="315" width="202" height="124" fill="#0A0A0A"/>
<rect x="806" y="171" width="202" height="124" fill="#C5E802"/>
<rect x="517" y="26" width="202" height="124" fill="#D9D9D9"/>
<rect x="673" y="315" width="202" height="124" fill="#0A0A0A"/>
<rect x="595" y="171" width="202" height="124" fill="#C5E802"/>
<rect x="301" y="26" width="206" height="124" fill="#D9D9D9"/>
<rect x="301" y="315" width="364" height="124" fill="#0A0A0A"/>
<rect x="301" y="171" width="285" height="124" fill="#C5E802"/>
<path d="M171 113C227.5 113 240 26 301 26C301 64 301 105.5 301 150C246 150 228 237 171 237C171 201.5 171 157.5 171 113Z" fill="url(#paint0_linear_1_34)"/>
<path d="M930 150C930 159.127 1008 161.146 1008 171C957.573 171 865.052 171 806 171C806 162.115 728 159.208 728 150C775.109 150 870.948 150 930 150Z" fill="url(#paint1_linear_1_34)"/>
<path d="M1008 294C1008 303.127 1086 305.146 1086 315C1035.57 315 943.052 315 884 315C884 306.115 806 303.208 806 294C853.109 294 948.948 294 1008 294Z" fill="url(#paint2_linear_1_34)"/>
<path d="M171 237C227.5 237 240 171 301 171C301 209 301 250.5 301 295C246 295 228 361 171 361C171 325.5 171 281.5 171 237Z" fill="url(#paint3_linear_1_34)"/>
<path d="M171 359C227.5 359 240 315 301 315C301 353 301 394.5 301 439C246 439 228 483 171 483C171 447.5 171 403.5 171 359Z" fill="#0A0A0A"/>
<path d="M618 150C618 161.268 697 159.732 697 171" stroke="black" stroke-opacity="0.5" stroke-width="2"/>
<path d="M697 295C697 306.268 776 304.732 776 316" stroke="black" stroke-opacity="0.5" stroke-width="2"/>
<path d="M618 26V5" stroke="black" stroke-opacity="0.5" stroke-width="2"/>
<path d="M178.992 154V133.012H171.36V128.332H184.572V154H178.992Z" fill="white" fill-opacity="0.5"/>
<path d="M172.08 277V269.368C172.08 266.968 172.752 265.108 174.096 263.788C175.44 262.468 177.396 261.808 179.964 261.808H191.808C194.088 261.808 195.228 260.836 195.228 258.892C195.228 256.948 194.088 255.976 191.808 255.976H172.656V251.296H192.924C195.42 251.296 197.352 251.968 198.72 253.312C200.112 254.656 200.808 256.516 200.808 258.892C200.808 261.268 200.112 263.128 198.72 264.472C197.352 265.816 195.42 266.488 192.924 266.488H180.756C179.724 266.488 178.944 266.752 178.416 267.28C177.912 267.784 177.66 268.504 177.66 269.44V272.356H200.124V277H172.08Z" fill="white" fill-opacity="0.5"/>
<path d="M172.08 400V395.32H191.88C192.792 395.32 193.476 395.068 193.932 394.564C194.388 394.036 194.616 393.316 194.616 392.404C194.616 391.468 194.388 390.736 193.932 390.208C193.476 389.68 192.792 389.416 191.88 389.416H175.464V384.772H191.844C193.692 384.772 194.616 383.8 194.616 381.856C194.616 379.936 193.692 378.976 191.844 378.976H172.08V374.296H192.924C195.42 374.296 197.352 374.92 198.72 376.168C200.112 377.392 200.808 379.108 200.808 381.316C200.808 382.516 200.58 383.656 200.124 384.736C199.668 385.792 198.912 386.572 197.856 387.076C198.912 387.604 199.668 388.384 200.124 389.416C200.58 390.424 200.808 391.54 200.808 392.764C200.808 394.948 200.112 396.7 198.72 398.02C197.352 399.34 195.42 400 192.924 400H172.08Z" fill="white" fill-opacity="0.5"/>
<defs>
<linearGradient id="paint0_linear_1_34" x1="301" y1="131.5" x2="171" y2="131.5" gradientUnits="userSpaceOnUse">
<stop stop-color="#D9D9D9"/>
<stop offset="1" stop-color="#0A0A0A"/>
</linearGradient>
<linearGradient id="paint1_linear_1_34" x1="868" y1="150" x2="868" y2="171" gradientUnits="userSpaceOnUse">
<stop stop-color="#D9D9D9"/>
<stop offset="1" stop-color="#C5E802"/>
</linearGradient>
<linearGradient id="paint2_linear_1_34" x1="946" y1="294" x2="946" y2="315" gradientUnits="userSpaceOnUse">
<stop stop-color="#C5E802"/>
<stop offset="1" stop-color="#0A0A0A"/>
</linearGradient>
<linearGradient id="paint3_linear_1_34" x1="301" y1="266" x2="171" y2="266" gradientUnits="userSpaceOnUse">
<stop stop-color="#C5E802"/>
<stop offset="1" stop-color="#0A0A0A"/>
</linearGradient>
</defs>
</svg>
