<svg width="1086" height="483" viewBox="0 0 1086 483" fill="none" xmlns="http://www.w3.org/2000/svg" preserveAspectRatio="none">
<rect y="113" width="171" height="370" fill="#0A0A0A"/>
<rect x="728" y="26" width="202" height="124" fill="#D9D9D9"/>
<rect x="884" y="315" width="202" height="124" fill="#0A0A0A"/>
<rect x="806" y="171" width="202" height="124" fill="#C5E802"/>
<rect x="517" y="26" width="202" height="124" fill="#D9D9D9"/>
<rect x="673" y="315" width="202" height="124" fill="#0A0A0A"/>
<rect x="595" y="171" width="202" height="124" fill="#C5E802"/>
<rect x="301" y="26" width="206" height="124" fill="#D9D9D9"/>
<rect x="301" y="315" width="364" height="124" fill="#0A0A0A"/>
<rect x="301" y="171" width="285" height="124" fill="#C5E802"/>
<path d="M171 113C227.5 113 240 26 301 26C301 64 301 105.5 301 150C246 150 228 237 171 237C171 201.5 171 157.5 171 113Z" fill="url(#paint0_linear_1_34)"/>
<path d="M930 150C930 159.127 1008 161.146 1008 171C957.573 171 865.052 171 806 171C806 162.115 728 159.208 728 150C775.109 150 870.948 150 930 150Z" fill="url(#paint1_linear_1_34)"/>
<path d="M1008 294C1008 303.127 1086 305.146 1086 315C1035.57 315 943.052 315 884 315C884 306.115 806 303.208 806 294C853.109 294 948.948 294 1008 294Z" fill="url(#paint2_linear_1_34)"/>
<path d="M171 237C227.5 237 240 171 301 171C301 209 301 250.5 301 295C246 295 228 361 171 361C171 325.5 171 281.5 171 237Z" fill="url(#paint3_linear_1_34)"/>
<path d="M171 359C227.5 359 240 315 301 315C301 353 301 394.5 301 439C246 439 228 483 171 483C171 447.5 171 403.5 171 359Z" fill="#0A0A0A"/>
<path d="M618 150C618 161.268 697 159.732 697 171" stroke="black" stroke-opacity="0.5" stroke-width="2"/>
<path d="M697 295C697 306.268 776 304.732 776 316" stroke="black" stroke-opacity="0.5" stroke-width="2"/>
<path d="M618 26V5" stroke="black" stroke-opacity="0.5" stroke-width="2"/>
<path d="M178.992 154V133.012H171.36V128.332H184.572V154H178.992Z" fill="white" fill-opacity="0.5"/>
<path d="M175.548 171V167.94L171 162.42H173.376L176.508 166.308L179.628 162.42H182.004L177.48 167.928V171H175.548ZM182.844 171V162.42H192.252V163.98H184.764V165.876H191.556V167.436H184.764V169.44H192.252V171H182.844ZM192.847 171L196.711 162.42H199.675L203.539 171H201.451L200.635 169.188H195.751L194.935 171H192.847ZM196.447 167.628H199.939L198.271 163.92H198.115L196.447 167.628ZM204.5 171V162.42H211.688C212.576 162.42 213.264 162.644 213.752 163.092C214.248 163.54 214.496 164.22 214.496 165.132C214.496 165.908 214.316 166.516 213.956 166.956C213.596 167.396 213.084 167.672 212.42 167.784L214.4 171H212.216L210.38 167.844H206.42V171H204.5ZM211.46 163.98H206.42V166.272L211.46 166.284C211.812 166.284 212.08 166.196 212.264 166.02C212.456 165.844 212.552 165.548 212.552 165.132C212.552 164.708 212.456 164.412 212.264 164.244C212.08 164.068 211.812 163.98 211.46 163.98ZM221.957 171V164.004H219.413V162.444H223.817V171H221.957ZM171.564 185.06V183.5L178.464 183.512C178.816 183.512 179.084 183.432 179.268 183.272C179.46 183.104 179.556 182.836 179.556 182.468C179.556 182.1 179.46 181.836 179.268 181.676C179.084 181.508 178.816 181.424 178.464 181.424H174.168C173.28 181.424 172.588 181.212 172.092 180.788C171.604 180.356 171.36 179.724 171.36 178.892C171.36 178.06 171.604 177.432 172.092 177.008C172.588 176.576 173.28 176.36 174.168 176.36H180.912V177.92L174.372 177.908C174.028 177.908 173.76 177.988 173.568 178.148C173.376 178.3 173.28 178.548 173.28 178.892C173.28 179.236 173.376 179.488 173.568 179.648C173.76 179.8 174.028 179.876 174.372 179.876H178.668C179.556 179.876 180.244 180.096 180.732 180.536C181.228 180.968 181.476 181.612 181.476 182.468C181.476 183.316 181.228 183.96 180.732 184.4C180.244 184.84 179.556 185.06 178.668 185.06H171.564ZM182.68 185V176.42H192.088V177.98H184.6V179.876H191.392V181.436H184.6V183.44H192.088V185H182.68ZM193.403 185V176.42H195.011L198.983 179.204H199.043L203.015 176.42H204.622V185H202.703V178.82L199.979 180.644V185H198.059V180.644L195.323 178.82V185H193.403ZM212.324 185V178.004H209.78V176.444H214.184V185H212.324Z" fill="white" fill-opacity="0.5"/>
<path d="M175.548 298V294.94L171 289.42H173.376L176.508 293.308L179.628 289.42H182.004L177.48 294.928V298H175.548ZM182.844 298V289.42H192.252V290.98H184.764V292.876H191.556V294.436H184.764V296.44H192.252V298H182.844ZM192.847 298L196.711 289.42H199.675L203.539 298H201.451L200.635 296.188H195.751L194.935 298H192.847ZM196.447 294.628H199.939L198.271 290.92H198.115L196.447 294.628ZM204.5 298V289.42H211.688C212.576 289.42 213.264 289.644 213.752 290.092C214.248 290.54 214.496 291.22 214.496 292.132C214.496 292.908 214.316 293.516 213.956 293.956C213.596 294.396 213.084 294.672 212.42 294.784L214.4 298H212.216L210.38 294.844H206.42V298H204.5ZM211.46 290.98H206.42V293.272L211.46 293.284C211.812 293.284 212.08 293.196 212.264 293.02C212.456 292.844 212.552 292.548 212.552 292.132C212.552 291.708 212.456 291.412 212.264 291.244C212.08 291.068 211.812 290.98 211.46 290.98ZM221.957 298V291.004H219.413V289.444H223.817V298H221.957ZM171.564 312.06V310.5L178.464 310.512C178.816 310.512 179.084 310.432 179.268 310.272C179.46 310.104 179.556 309.836 179.556 309.468C179.556 309.1 179.46 308.836 179.268 308.676C179.084 308.508 178.816 308.424 178.464 308.424H174.168C173.28 308.424 172.588 308.212 172.092 307.788C171.604 307.356 171.36 306.724 171.36 305.892C171.36 305.06 171.604 304.432 172.092 304.008C172.588 303.576 173.28 303.36 174.168 303.36H180.912V304.92L174.372 304.908C174.028 304.908 173.76 304.988 173.568 305.148C173.376 305.3 173.28 305.548 173.28 305.892C173.28 306.236 173.376 306.488 173.568 306.648C173.76 306.8 174.028 306.876 174.372 306.876H178.668C179.556 306.876 180.244 307.096 180.732 307.536C181.228 307.968 181.476 308.612 181.476 309.468C181.476 310.316 181.228 310.96 180.732 311.4C180.244 311.84 179.556 312.06 178.668 312.06H171.564ZM182.68 312V303.42H192.088V304.98H184.6V306.876H191.392V308.436H184.6V310.44H192.088V312H182.68ZM193.403 312V303.42H195.011L198.983 306.204H199.043L203.015 303.42H204.622V312H202.703V305.82L199.979 307.644V312H198.059V307.644L195.323 305.82V312H193.403ZM210.02 312V309.456C210.02 308.656 210.244 308.036 210.692 307.596C211.14 307.156 211.792 306.936 212.648 306.936H216.596C217.356 306.936 217.736 306.612 217.736 305.964C217.736 305.316 217.356 304.992 216.596 304.992H210.212V303.432H216.968C217.8 303.432 218.444 303.656 218.9 304.104C219.364 304.552 219.596 305.172 219.596 305.964C219.596 306.756 219.364 307.376 218.9 307.824C218.444 308.272 217.8 308.496 216.968 308.496H212.912C212.568 308.496 212.308 308.584 212.132 308.76C211.964 308.928 211.88 309.168 211.88 309.48V310.452H219.368V312H210.02Z" fill="white" fill-opacity="0.5"/>
<path d="M175.548 421V417.94L171 412.42H173.376L176.508 416.308L179.628 412.42H182.004L177.48 417.928V421H175.548ZM182.844 421V412.42H192.252V413.98H184.764V415.876H191.556V417.436H184.764V419.44H192.252V421H182.844ZM192.847 421L196.711 412.42H199.675L203.539 421H201.451L200.635 419.188H195.751L194.935 421H192.847ZM196.447 417.628H199.939L198.271 413.92H198.115L196.447 417.628ZM204.5 421V412.42H211.688C212.576 412.42 213.264 412.644 213.752 413.092C214.248 413.54 214.496 414.22 214.496 415.132C214.496 415.908 214.316 416.516 213.956 416.956C213.596 417.396 213.084 417.672 212.42 417.784L214.4 421H212.216L210.38 417.844H206.42V421H204.5ZM211.46 413.98H206.42V416.272L211.46 416.284C211.812 416.284 212.08 416.196 212.264 416.02C212.456 415.844 212.552 415.548 212.552 415.132C212.552 414.708 212.456 414.412 212.264 414.244C212.08 414.068 211.812 413.98 211.46 413.98ZM219.653 421V418.456C219.653 417.656 219.877 417.036 220.325 416.596C220.773 416.156 221.425 415.936 222.281 415.936H226.229C226.989 415.936 227.369 415.612 227.369 414.964C227.369 414.316 226.989 413.992 226.229 413.992H219.845V412.432H226.601C227.433 412.432 228.077 412.656 228.533 413.104C228.997 413.552 229.229 414.172 229.229 414.964C229.229 415.756 228.997 416.376 228.533 416.824C228.077 417.272 227.433 417.496 226.601 417.496H222.545C222.201 417.496 221.941 417.584 221.765 417.76C221.597 417.928 221.513 418.168 221.513 418.48V419.452H229.001V421H219.653ZM171 432.612V431.22H181.056V432.612H171ZM184.278 435V431.94L179.73 426.42H182.106L185.238 430.308L188.358 426.42H190.734L186.21 431.928V435H184.278ZM191.574 435V426.42H200.982V427.98H193.494V429.876H200.286V431.436H193.494V433.44H200.982V435H191.574ZM201.577 435L205.441 426.42H208.405L212.269 435H210.181L209.365 433.188H204.481L203.665 435H201.577ZM205.177 431.628H208.669L207.001 427.92H206.845L205.177 431.628ZM213.231 435V426.42H220.419C221.307 426.42 221.995 426.644 222.483 427.092C222.979 427.54 223.227 428.22 223.227 429.132C223.227 429.908 223.047 430.516 222.687 430.956C222.327 431.396 221.815 431.672 221.151 431.784L223.131 435H220.947L219.111 431.844H215.151V435H213.231ZM220.191 427.98H215.151V430.272L220.191 430.284C220.543 430.284 220.811 430.196 220.995 430.02C221.187 429.844 221.283 429.548 221.283 429.132C221.283 428.708 221.187 428.412 220.995 428.244C220.811 428.068 220.543 427.98 220.191 427.98ZM228.383 435V433.44H234.983C235.287 433.44 235.515 433.356 235.667 433.188C235.819 433.012 235.895 432.772 235.895 432.468C235.895 432.156 235.819 431.912 235.667 431.736C235.515 431.56 235.287 431.472 234.983 431.472H229.511V429.924H234.971C235.587 429.924 235.895 429.6 235.895 428.952C235.895 428.312 235.587 427.992 234.971 427.992H228.383V426.432H235.331C236.163 426.432 236.807 426.64 237.263 427.056C237.727 427.464 237.959 428.036 237.959 428.772C237.959 429.172 237.883 429.552 237.731 429.912C237.579 430.264 237.327 430.524 236.975 430.692C237.327 430.868 237.579 431.128 237.731 431.472C237.883 431.808 237.959 432.18 237.959 432.588C237.959 433.316 237.727 433.9 237.263 434.34C236.807 434.78 236.163 435 235.331 435H228.383Z" fill="white" fill-opacity="0.5"/>
<path d="M172.08 277V269.368C172.08 266.968 172.752 265.108 174.096 263.788C175.44 262.468 177.396 261.808 179.964 261.808H191.808C194.088 261.808 195.228 260.836 195.228 258.892C195.228 256.948 194.088 255.976 191.808 255.976H172.656V251.296H192.924C195.42 251.296 197.352 251.968 198.72 253.312C200.112 254.656 200.808 256.516 200.808 258.892C200.808 261.268 200.112 263.128 198.72 264.472C197.352 265.816 195.42 266.488 192.924 266.488H180.756C179.724 266.488 178.944 266.752 178.416 267.28C177.912 267.784 177.66 268.504 177.66 269.44V272.356H200.124V277H172.08Z" fill="white" fill-opacity="0.5"/>
<path d="M172.08 400V395.32H191.88C192.792 395.32 193.476 395.068 193.932 394.564C194.388 394.036 194.616 393.316 194.616 392.404C194.616 391.468 194.388 390.736 193.932 390.208C193.476 389.68 192.792 389.416 191.88 389.416H175.464V384.772H191.844C193.692 384.772 194.616 383.8 194.616 381.856C194.616 379.936 193.692 378.976 191.844 378.976H172.08V374.296H192.924C195.42 374.296 197.352 374.92 198.72 376.168C200.112 377.392 200.808 379.108 200.808 381.316C200.808 382.516 200.58 383.656 200.124 384.736C199.668 385.792 198.912 386.572 197.856 387.076C198.912 387.604 199.668 388.384 200.124 389.416C200.58 390.424 200.808 391.54 200.808 392.764C200.808 394.948 200.112 396.7 198.72 398.02C197.352 399.34 195.42 400 192.924 400H172.08Z" fill="white" fill-opacity="0.5"/>
<defs>
<linearGradient id="paint0_linear_1_34" x1="301" y1="131.5" x2="171" y2="131.5" gradientUnits="userSpaceOnUse">
<stop stop-color="#D9D9D9"/>
<stop offset="1" stop-color="#0A0A0A"/>
</linearGradient>
<linearGradient id="paint1_linear_1_34" x1="868" y1="150" x2="868" y2="171" gradientUnits="userSpaceOnUse">
<stop stop-color="#D9D9D9"/>
<stop offset="1" stop-color="#C5E802"/>
</linearGradient>
<linearGradient id="paint2_linear_1_34" x1="946" y1="294" x2="946" y2="315" gradientUnits="userSpaceOnUse">
<stop stop-color="#C5E802"/>
<stop offset="1" stop-color="#0A0A0A"/>
</linearGradient>
<linearGradient id="paint3_linear_1_34" x1="301" y1="266" x2="171" y2="266" gradientUnits="userSpaceOnUse">
<stop stop-color="#C5E802"/>
<stop offset="1" stop-color="#0A0A0A"/>
</linearGradient>
</defs>
</svg>
